<svg id="_레이어_2" data-name="레이어 2" xmlns="http://www.w3.org/2000/svg" viewBox="0 0 1920 829.98">
  <defs>
    <style>
      .cls-1 {
        fill: none;
      }

      .cls-2 {
        fill: #17e5e0;
      }

      .cls-3 {
        fill: #161615;
      }
    </style>
  </defs>
  <g id="Work">
    <g>
      <g>
        <path class="cls-1" d="M793.75,540.81c2.21.7,5.48.22,7.38-1.07,1.07-.72,1.04-4.44.26-6.29-1.84-4.35-3.8-8.66-5.77-12.96h-22.31c4.18,5.22,8.76,10.16,13.17,15.19,1.92,2.2,4.56,4.25,7.27,5.12Z"/>
        <path class="cls-1" d="M623.49,523.57c-.13-1.03-.27-2.05-.41-3.08h-2.64c.98,1.04,1.99,2.07,3.05,3.08Z"/>
        <path class="cls-1" d="M526.96,562.22c3.84-1.52,2.58-4.49,2.13-7.62-1.61-11.37-3.25-22.73-4.84-34.11h-23.15c6.4,12.56,12.88,25.08,19.53,37.51,1.22,2.28,2.49,5.74,6.33,4.21Z"/>
        <path class="cls-1" d="M529.89,276.06c-.57-1.98-1.39-3.9-2.1-5.84-1.96.9-4.79,1.26-5.74,2.79-5.43,8.8-10.6,17.77-15.47,26.89-1.64,3.07-2.88,6.35-4.21,9.59h21.49c1.65-10.35,3.57-20.66,5.81-30.94.18-.82.44-1.74.23-2.49Z"/>
        <path class="cls-1" d="M801.9,292.14c-1.67-.83-4.53-1.31-5.87-.39-4.41,3.02-8.57,6.48-12.43,10.2-2.51,2.42-4.9,4.94-7.18,7.54h19.99c1.83-4.06,3.68-8.12,5.36-12.25.63-1.55.8-4.76.12-5.1Z"/>
        <path class="cls-1" d="M1118.22,535.31c-.58,1.61-.87,4.52-.02,5.17,1.38,1.05,4.17,1.55,5.74.85,8.13-3.63,14.94-9.32,19.84-16.61.94-1.4,1.85-2.81,2.78-4.22h-21.68c-.7,1.6-1.41,3.19-2.13,4.79-1.51,3.34-3.29,6.59-4.52,10.03Z"/>
        <path class="cls-1" d="M1409.28,290.95c-6.22-10.39-12.91-20.49-19.41-30.71-.55.29-1.1.58-1.66.86,1.1,8.9,2.14,17.8,3.32,26.68.96,7.23,1.93,14.46,2.89,21.7h24.18c-.1-.19-.21-.36-.3-.56-2.83-6.07-5.58-12.23-9.02-17.96Z"/>
        <path class="cls-1" d="M1126.09,293.03c-1.09-.76-2.3-1.85-3.47-1.86-1.64-.02-3.61.44-4.8,1.45-.7.59-.65,2.86-.13,4,1.95,4.27,3.85,8.56,5.71,12.86h20.54c-5.2-6.19-11.13-11.74-17.85-16.45Z"/>
        <path class="cls-1" d="M1388.58,572.36c3.65-4.64,7.99-8.89,10.8-13.98,6.85-12.43,13.07-25.21,19.49-37.88h-23.9c-1.25,8.83-2.52,17.66-3.75,26.5-1.15,8.24-2.48,16.46-2.64,25.36Z"/>
        <path class="cls-2" d="M1032.39,292.32c-2.49-3.07-4.99-6.24-2.36-10.31,2.71-4.2,6.75-4.37,11.16-3.07,5.91,1.74,11.78,3.78,17.81,4.82,2.29.4,6.16-.94,7.2-2.72,1.21-2.07.4-5.55-.14-8.3-.24-1.26-1.91-2.25-2.97-3.33-9.65-9.82-19.47-19.49-28.93-29.5-8.71-9.22-7.65-13.02,4.23-17.19,4.09-1.43,8.31-2.48,12.36-4.01,5.3-2,5.78-3.89,2.07-7.89-3.76-4.06-7.88-7.79-11.61-11.87-3.61-3.95-7.36-7.88-10.28-12.32-3.97-6.04-2.52-11.44,3.44-15.6,1.78-1.24,3.76-2.2,5.58-3.38,7.1-4.63,7.98-9.72,2.68-16.3-2.42-3-5.27-5.66-7.63-8.69-8.83-11.34-8.03-18.81,2.81-28.06,5.3-4.52,5.97-7.89,2.54-14.02-1.22-2.18-2.7-4.25-4.24-6.22-9.48-12.18-9.61-19.64-.21-31.94,3.16-4.14,3.87-8.51,1.76-13.15-1.23-2.71-2.94-5.23-4.66-7.69-6.27-8.99-6.71-16.53-.73-25.59,3.54-5.36,4.68-10.67,3.53-15.97h-51.11c-.16,16.81-1.04,33.64-.82,50.44.26,20.3.71,40.52-1.92,60.75-1.44,11.07.12,22.17,5.24,32.31,1.99,3.94,1.54,7.09-.01,10.92-1.91,4.72-3.52,9.69-4.34,14.7-1.23,7.48,1.92,14.06,5.65,20.35,2.66,4.49,3.24,8.82.15,13.63-8.72,13.56-7.85,24.24,2.54,36.71,4.85,5.83,4.99,9.49.68,15.79-2.27,3.32-4.72,6.55-6.62,10.07-3.86,7.17-2.96,11.88,2.91,17.48,1.21,1.15,2.58,2.14,3.89,3.19,5.59,4.52,11.36,8.85,16.65,13.69,1.34,1.23,2.01,4.42,1.41,6.15-.44,1.26-3.42,1.96-5.38,2.31-2.81.51-5.73.63-8.57.98h50.49c-4.76-5.71-9.57-11.4-14.26-17.16Z"/>
        <path class="cls-2" d="M990.46,522.01c3.82,1.37,8.08,1.65,12.18,2.12,3.07.36,7.42-.79,7.79,3.35.24,2.68-1.76,6.31-3.89,8.31-4.48,4.22-9.77,7.57-14.6,11.43-11,8.8-13.71,17.77-2.24,27.72,7.15,6.21,6.92,13.89.7,21.27-2.55,3.03-5.09,6.35-6.53,9.98-3.29,8.31.3,15.79,4.38,22.77,2.93,5.02,3.13,9.24.03,14.37-7.21,11.93-7.57,24.2-.9,36.74,1.24,2.33,1.42,6.03.53,8.53-4.35,12.2-5.87,24.71-5.32,37.54.59,13.74,1.68,27.47,1.9,41.21.2,12.92-.63,25.84-.69,38.77-.04,7.94.03,15.89.09,23.84h52.56c.3-3.56-.8-7.04-2.99-10.44-6.71-10.42-6.53-20.6,1.19-30.66,6.13-7.99,5.74-13.16-.76-21.14-6.35-7.8-6.77-16.23-1.15-24.48,1.23-1.8,2.67-3.45,3.95-5.21,7.06-9.68,6.02-16.42-3.61-23.45-5.5-4.02-6.72-8.01-3.29-13.76,3.76-6.31,7.82-12.5,12.3-18.31,5.98-7.75,5.6-11.49-2.67-16.53-.57-.35-1.17-.66-1.74-1.02-10.86-6.75-11.29-14.09-2.11-22.99,5.99-5.81,11.32-12.35,16.62-18.83,3.01-3.68,2.3-5.86-1.99-7.79-2.87-1.3-5.91-2.24-8.91-3.25-14.89-4.99-16.17-10.47-5.01-21.68,9.01-9.05,18.18-17.96,27.02-27.18,2.48-2.59,4.44-5.89,5.89-9.19,1.39-3.17.24-5.85-3.86-5.36-3.78.45-7.53,1.32-11.25,2.18-5.03,1.16-9.98,3.14-15.05,3.5-2.79.19-6.35-1.6-8.51-3.63-2.65-2.48-1.42-5.94.64-8.68,1.61-2.14,3.44-4.11,5.14-6.18,4.24-5.19,8.62-10.28,12.96-15.4h-61.82c.9.6,1.91,1.11,3.05,1.52Z"/>
        <path class="cls-2" d="M915.43,308.55c-2.28-.37-4.45-1.37-6.67-2.09.89-2.31,1.17-5.26,2.78-6.8,4.6-4.38,9.67-8.26,14.68-12.18,11.04-8.65,17.1-18.72,3.55-30.44-6.36-5.5-5.71-12.01.05-19.16,9.53-11.84,10.35-20.67,2.29-33.44-3.38-5.36-3.43-9.81-.14-15.27,6.77-11.23,7.63-23.11,1.26-34.87-2.22-4.09-1.93-7.71-.85-11.95,1.97-7.72,4.61-15.58,4.71-23.42.29-21.27-1.02-42.56-.95-63.84.06-18.36.19-36.73.34-55.09h-52.58c-1.3,4.19-.63,8.29,2.13,12.39,7.5,11.12,7.03,21.67-1.06,32.36-5.48,7.24-4.82,12.93.73,20.05,2.12,2.72,4.04,5.82,5.11,9.06,1.93,5.86-.24,11.18-3.63,16.01-1.35,1.92-2.97,3.65-4.32,5.57-6.39,9.1-5.35,17.1,3.11,24.32,6.53,5.58,7.87,9.94,4.03,15.5-3.6,5.22-7.5,10.3-11.77,14.98-6.49,7.11-5.83,13.19,2.5,17.94,12.84,7.32,13.83,12.78,4.34,23.98-.54.64-1.04,1.32-1.63,1.92-4.85,4.87-9.81,9.65-14.57,14.61-6.01,6.26-4.92,9.83,3.54,12.09,2.73.73,5.5,1.31,8.21,2.13,4.25,1.28,10.45,1.63,10.74,6.61.22,3.69-3.16,8.24-6.08,11.34-9.77,10.39-20.07,20.29-30.11,30.43-1.4,1.41-2.71,3.02-3.66,4.76-2.82,5.17-.64,9.08,5.1,8.34,6.42-.82,12.81-2.33,19-4.23,8.38-2.58,11.48-2.55,14.05,1.47,2.58,4.03,1.08,7.91-4.41,14.06-4.1,4.59-8.24,9.16-12.3,13.79h52.01c-3.18-.32-6.39-.42-9.54-.93Z"/>
        <path class="cls-2" d="M888.15,541.11c2.26,2.64,3.86,5.47,2.1,9.11-1.92,3.96-5.3,5.01-9.22,4.41-4.44-.68-8.84-1.65-13.2-2.73-3.87-.96-7.61-2.53-11.51-3.23-1.68-.3-4.61.4-5.24,1.58-.85,1.59-.66,4.39.21,6.09,1.35,2.62,3.49,4.92,5.6,7.05,10.28,10.41,20.66,20.71,30.99,31.06,5.48,5.49,4.73,11.37-2.29,14.85-3.22,1.6-6.95,2.22-10.49,3.11-11.74,2.95-12.78,6.24-4.53,15.15,5.69,6.15,11.69,12.03,17.23,18.31,3.95,4.48,3.93,7.5.08,11.99-2.6,3.04-5.79,5.58-8.8,8.25-6.74,6-6.9,8.91-1.3,16.08,3.81,4.88,7.63,9.81,10.86,15.07,5.48,8.93,4.49,12.7-4.04,18.94-6.46,4.72-7.81,10.38-3.94,17.46,1.27,2.33,2.97,4.45,4.61,6.56,7.43,9.62,7.79,18.77,1.01,27.49-6.99,8.99-7.25,12.73-.4,21.89,7.04,9.42,7.91,18.79,1.28,28.72-2.56,3.83-3.69,7.75-3.46,11.65h53.57c-.07-5.66-.15-11.33-.27-16.99-.36-16.93-1.69-33.86-1.62-50.79.08-21.27,1.34-42.46-2.62-63.64-2.02-10.82-1.62-22.15,3.35-32.53,2.85-5.93,2.48-11.73-1.17-16.65-6.41-8.64-5.75-16.7-.64-25.65,5.48-9.59,4.17-17.64-2.95-25.87-8.87-10.24-8.65-15.38,1.05-24.78,7.11-6.9,7.49-14.7.28-21.41-6.37-5.93-13.4-11.15-20.09-16.74-2.39-2-4.95-4.71-2.97-7.64,1.23-1.81,4.6-2.46,7.14-3.03,4.36-.98,9.08-.8,13.2-2.33,1.04-.39,1.97-.87,2.79-1.42h-62.38c5.89,6.9,11.89,13.72,17.79,20.61Z"/>
        <path class="cls-2" d="M1205.04,305.01c-9.77-12.39-19.47-24.87-32.92-33.62-2.36-1.54-5.17-2.38-7.78-3.54.44,2.76.47,5.66,1.39,8.25,3.99,11.11,8,22.22,11.78,33.39h30.97c-1.17-1.48-2.29-3-3.46-4.47Z"/>
        <path class="cls-2" d="M1207.32,552.96c-11.51,26.1-26.59,50.19-41.61,74.32-1.23,1.98-2.97,4.03-3.16,6.17-.23,2.6.26,5.84,1.77,7.77.81,1.05,4.6.54,6.66-.26,7.6-2.99,15.02-6.41,22.53-9.61,1.21-.51,2.55-.87,3.85-.96,4.02-.28,5.73,1.61,4.52,5.44-.94,2.98-2.22,6-3.99,8.55-8.3,11.99-16.84,23.81-25.26,35.71-3.28,4.64-6.68,9.22-9.66,14.06-2.09,3.39-2.32,7.67.82,10.14,2.27,1.79,6.14,2.4,9.18,2.15,3.73-.31,7.31-2.22,11.02-3.17,5.49-1.41,9.82,3.11,7.92,8.48-.98,2.77-2.69,5.36-4.42,7.78-7.3,10.24-15.03,20.18-22.02,30.63-6.46,9.66-4.67,13.24,6.68,15.57.66.13,1.28.43,1.94.56,13.23,2.65,14.76,6.91,6.7,17.64-5.53,7.36-10.9,14.86-15.93,22.57-3.07,4.7-2.22,8.31,1.97,12,2.64,2.32,5.5,4.39,8.24,6.61,2.17,1.75,3.65,3.3,4.49,4.87h37c4.56-7.6,9.08-15.23,13.23-23.05,3.59-6.74,1.69-9.7-5.78-11.21-2.28-.46-4.61-.75-6.93-.95-9.28-.79-11.73-5.03-6.79-12.8,5.75-9.04,12.1-17.7,18.02-26.64,3.12-4.72,6.35-9.49,8.55-14.65.86-2.01-.28-5.72-1.82-7.6-1.04-1.27-4.37-.99-6.64-.87-3.31.17-6.58.95-9.89,1.24-3.79.33-7.42.09-9.6-3.85-2.1-3.79-.05-6.73,1.81-9.72,11.4-18.31,22.84-36.6,34.2-54.93,1.58-2.55,3.38-5.39.59-8.23-2.8-2.84-5.75-1.48-8.71.01-5.97,3-11.83,6.35-18.07,8.61-2.85,1.03-7.26.96-9.62-.62-3.56-2.39-.74-6,.82-8.9,11.84-22.09,24.19-43.93,35.34-66.37,5.3-10.67,8.43-22.43,12.27-33.8.51-1.52-.09-4.03-1.15-5.22-.6-.67-3.58-.1-4.78.83-2.62,2.03-5,4.48-7.11,7.05-8.94,10.87-17.12,22.51-29.91,29.42-1.65.89-3.7,1.04-5.57,1.53-.17-2.15-1.01-4.52-.39-6.41,1.96-6.02,4.35-11.91,6.78-17.77,6.09-14.72,11.45-29.58,15.93-44.59h-15.46c-.49,11.43-4.01,22.09-8.58,32.46Z"/>
        <path class="cls-2" d="M1173.58,532.18c-4.67,12.27-9.32,24.54-14.1,37.13.91-.21,1.38-.26,1.8-.43,1.08-.44,2.16-.91,3.21-1.42,14.03-6.77,24.08-17.91,33.25-30.07,4.26-5.64,8.62-11.2,13.06-16.89h-32.91c-1.4,3.9-2.83,7.8-4.31,11.68Z"/>
        <path class="cls-2" d="M1208.85,251.61c-1.02-2.97-2.41-5.95.65-8.64,8.6,2.48,14.78,8.03,20.4,14.33,7.25,8.13,14.32,16.4,21.71,24.4,1.26,1.37,3.68,1.66,5.57,2.45.16-2.02,1-4.29.37-6.04-5.43-15.04-10.04-30.51-17-44.84-9.55-19.69-21-38.45-31.42-57.72-1.04-1.93-1.67-5.54-.62-6.77,1.39-1.63,4.59-2,7.08-2.3,1.31-.16,2.82.87,4.17,1.51,6.04,2.87,11.96,6,18.12,8.58,2.02.85,5.93,1.23,6.66.2,1.22-1.73,1.4-5.11.55-7.2-2.33-5.7-5.06-11.31-8.29-16.55-8.87-14.39-18.17-28.52-27.05-42.91-1.11-1.8-1.83-5.53-.84-6.58,1.94-2.05,5.15-3.72,7.95-3.92,2.97-.22,6.12,1.32,9.12,2.33,3.74,1.26,7.21,1.69,10.05-1.8,2.91-3.58,2.16-7.24-.03-10.71-2.78-4.38-5.85-8.57-8.73-12.89-5.65-8.51-11.48-16.92-16.81-25.63-4.18-6.83-2.39-10.4,5.43-12.18,2.93-.67,6.01-.81,8.84-1.74,6.73-2.21,8.73-6.99,5.66-13.38-1.15-2.39-2.83-4.54-4.31-6.76-3.75-5.64-7.66-11.19-11.37-16.85h-34.31c-.14,4.05-3.52,7.22-11.99,10.09-5.91,2-7.94,7.16-5.34,12.96,1.35,3.02,3.38,5.76,5.25,8.52,5.54,8.18,11.37,16.17,16.66,24.5,2.82,4.44,1.67,6.94-3.13,9.08-1.36.61-2.85.93-4.29,1.35-3.2.93-6.47,1.67-9.6,2.79-6.95,2.49-8.06,5.25-4.54,11.72,1.76,3.23,3.89,6.28,6.1,9.23,6.54,8.72,13.24,17.31,19.78,26.03,2.61,3.48,4.48,7.31,1.33,11.44-2.97,3.89-6.81,2.57-10.54,1.33-1.9-.63-3.78-1.47-5.73-1.82-4.47-.8-8.39.36-10.97,4.3-2.36,3.61-1.17,7.09,1.09,10.26,2.82,3.96,5.84,7.77,8.66,11.73,9.04,12.7,18.12,25.38,26.95,38.23,2.12,3.09,4.7,7.45.94,10.33-1.98,1.52-6.59.75-9.52-.33-6.56-2.42-12.81-5.69-19.18-8.61-3.06-1.4-6.11-2.2-8.73.75-2.59,2.91-2.33,6.11-.4,9.23,2.38,3.85,4.85,7.64,7.34,11.42,17.86,27.17,34.54,54.94,43.61,86.53.78,2.72,1.16,5.58,1.41,8.42h13.34c-6.51-19.34-13.41-38.57-20.04-57.87Z"/>
        <path class="cls-2" d="M744.47,303.84c4.43-12.7,8.77-25.43,13.38-38.78-19.55,11.17-33.79,26.96-47.38,44.42h32.06c.64-1.88,1.29-3.76,1.94-5.64Z"/>
        <path class="cls-2" d="M708.92,289.91c11.43-29.31,27.01-56.34,44.97-82.07,1.61-2.3,3.13-4.8,4.01-7.43,1.48-4.42-1.45-8.17-6.08-7.93-2.1.11-4.29.73-6.21,1.62-6.21,2.88-12.19,6.3-18.53,8.85-2.06.83-6.03.58-7.17-.8-1.54-1.86-1.92-5.42-1.43-7.99.5-2.61,2.51-5.02,4.15-7.3,10.98-15.23,22.08-30.36,33.03-45.61,2-2.79,4.41-5.86,1.33-9.48-3.3-3.88-7.32-5.87-12.47-4.3-2.07.63-4,1.77-6.08,2.32-5.06,1.33-10.27-1.13-10.53-5.58-.16-2.65,1.34-5.79,2.97-8.1,8.12-11.5,16.65-22.71,24.79-34.2,5.1-7.19,3.47-11.05-5.02-13.31-3.86-1.03-7.8-1.89-11.52-3.31-5.2-1.98-6.52-5.4-3.85-10.31,2.15-3.95,4.86-7.6,7.44-11.3,4.5-6.45,9.55-12.57,13.5-19.34,3.69-6.32,1.66-11-4.95-14.36-1.34-.68-2.72-1.31-4.13-1.83-5.37-1.97-7.88-4.38-7.57-8.16h-33.92c-2.9,4.39-5.95,8.68-8.84,13.08-2.66,4.04-5.46,8.01-7.73,12.26-2.33,4.34-.43,7.91,3.45,10.24,2.1,1.26,4.6,2.1,7.02,2.54,14.19,2.53,15.44,5.34,7.35,17.38-7.38,10.98-14.93,21.85-22.23,32.88-2.36,3.57-4.1,7.61-.98,11.66,3.17,4.11,7.35,2.92,11.5,1.77,3.2-.89,6.46-2.09,9.7-2.1,5.94-.02,8.9,5.42,5.91,10.45-3.67,6.19-7.6,12.22-11.36,18.36-8.29,13.54-16.57,27.09-24.79,40.67-1.44,2.37-2.67,5.43.2,7.14,1.86,1.11,5.15,1.31,7.15.43,6.25-2.75,12.17-6.24,18.24-9.39,3.32-1.73,6.74-2.35,9.79.46,3.17,2.92,3.19,6.55,1.31,10.09-1.95,3.69-4.22,7.22-6.48,10.74-17.46,27.23-32.82,55.49-42.02,86.7-.98,3.33-.75,7.02-1.08,10.55l1.87.95c5-5.04,10.15-9.94,14.95-15.17,6.13-6.66,11.62-13.95,18.07-20.26,3.92-3.83,9.15-6.32,14.53-9.91.86,10.5-1.82,18.79-5.47,26.67-6.27,13.57-11.7,27.33-16.23,41.31h15.88c-.08-7.08,1.18-13.41,3.58-19.57Z"/>
        <path class="cls-2" d="M759.97,569.62c.27-.28.5-.45.48-.52-2.07-5.46-4.16-10.9-6.25-16.35-4.1-10.72-8.16-21.45-11.96-32.26h-33.02c15.23,18.13,27.02,39.82,50.75,49.12Z"/>
        <path class="cls-2" d="M704.86,565.6c2.25,5.38,5.01,10.57,6.96,16.05.66,1.85.29,5.43-.93,6.24-1.63,1.09-4.8.89-6.83.07-2.37-.95-4.51-2.93-6.27-4.89-9.19-10.22-18.26-20.55-27.31-30.91-2.51-2.88-5.09-5.23-9.42-4.14,4.59,25.08,15.43,47.39,27.52,69.19,7.46,13.46,15.11,26.83,22.38,40.39,1,1.87,1.31,5.31.24,6.77-1.14,1.54-4.27,1.82-6.61,2.16-1.17.17-2.57-.63-3.76-1.2-6.32-3.06-12.48-6.46-18.96-9.13-2.04-.84-5.32-.44-7.16.74-1.08.7-1.33,4.54-.45,6.14,6.3,11.41,12.81,22.72,19.62,33.84,5.15,8.41,11.03,16.37,16.15,24.8,1.28,2.12,2.04,5.99.94,7.74-1.27,2.02-4.83,3.45-7.45,3.56-4.22.17-8.54-.74-12.74-1.59-3.97-.8-7.31.91-7.54,5.02-.15,2.68.43,5.72,1.67,8.08,2.17,4.13,5.19,7.8,7.7,11.77,6.33,10,12.67,20.01,18.81,30.13,2.29,3.76.11,6.14-3.45,7.15-3.52,1-7.18,1.47-10.78,2.18-8.99,1.79-10.79,4.85-6.39,12.72,4.09,7.3,8.5,14.43,13.01,21.49h36.53c1.35-2.46,4.85-4.43,10.81-6.92,6.52-2.72,8.53-7.79,5.54-14.18-.63-1.35-1.48-2.63-2.34-3.86-5.57-7.97-11.17-15.91-16.76-23.87-5.57-7.92-4.22-11.75,5.09-14.52,3.03-.9,6.1-1.72,9.04-2.85,7.56-2.91,8.79-6.13,4.22-12.92-5.05-7.5-10.75-14.55-16.06-21.88-4.01-5.54-8.15-11.02-11.56-16.92-.9-1.55-.06-5.2,1.29-6.67,1.32-1.44,4.42-2.04,6.57-1.75,3.94.52,7.71,2.15,11.62,2.98,7.25,1.54,12.35-4.04,9.86-11.01-1.05-2.93-3.01-5.58-4.84-8.16-10.36-14.63-20.87-29.16-31.15-43.85-1.56-2.23-2.74-5.04-3.11-7.72-.73-5.25,1.31-6.7,6.46-5.14,1.59.48,3.11,1.22,4.65,1.87,6.91,2.93,13.79,5.95,20.75,8.78,5.1,2.07,8.61-.76,7.71-6.28-.34-2.08-1.23-4.19-2.32-6.02-6.8-11.35-13.5-22.76-20.67-33.88-11.66-18.06-21.77-36.81-27.08-57.79-1.41-5.57-2.32-11.27-3.33-16.94h-16.38c4.75,15.27,10.35,30.28,16.53,45.1Z"/>
        <path class="cls-2" d="M0,829.98h42.51c0-103.16.02-206.32.04-309.48H0"/>
        <path class="cls-2" d="M0,309.48h42.57c.01-103.16.02-206.32.04-309.48H0"/>
        <path class="cls-2" d="M1920,0h-42.39c-.02,103.16-.03,206.32-.05,309.48h42.44V0Z"/>
        <path class="cls-2" d="M1877.47,829.98h42.53v-309.48h-42.48c-.02,103.16-.04,206.32-.05,309.48Z"/>
        <path class="cls-2" d="M332.46,534.34c3.66,26.28,8.66,52.39,13.33,78.53,2.82,15.78,6.3,31.44,8.9,47.25.43,2.64-1.51,6.37-3.51,8.52-2.55,2.74-5.03-.23-7.36-1.78-3.83-2.54-7.78-4.89-11.98-7.5-2.64,13.83-1.96,23.33,2.83,39.99,6.31,21.94,12.75,43.83,19.04,65.77,3.07,10.72.79,13.69-10.23,13.8-5.91.06-9.01,2.71-8.32,8.67.92,7.92,2.25,15.89,4.49,23.53,1.85,6.33,3.92,12.6,6.02,18.87h53.25c-5.36-16.66-11.33-33.12-16.68-49.79-2.12-6.62-3.58-13.52-4.57-20.41-.61-4.21,1.74-5.7,5.93-4.57,2.72.73,5.3,2,7.98,2.9,4.98,1.68,7.82.41,8.07-4.71.25-5.2-.14-10.71-1.61-15.68-5.03-17.1-11.06-33.92-15.93-51.06-4.38-15.39-7.9-31.02-11.36-46.65-.49-2.2.82-5.87,2.57-7.23,2.61-2.03,4.53.75,6.41,2.87,5.82,6.61,12.68,11.75,21.61,13.81.15-.74.4-1.25.32-1.7-3.13-16.74-6.5-33.44-9.38-50.23-4.4-25.64-9.12-51.26-12.46-77.05h-48.77c.35,4.63.79,9.25,1.43,13.84Z"/>
        <path class="cls-2" d="M381.7,300.86c4.53-30.39,10.26-60.61,15.56-90.89,1.4-8.01,3.12-15.96,4.8-24.46-10.69,0-17.39,5.41-22.89,13.09-.93,1.3-3.02,3.11-3.92,2.8-1.81-.62-3.83-2.28-4.54-4.01-.76-1.84-.54-4.38-.02-6.42,6.53-25.49,12.03-51.25,21.64-75.9,3.61-9.27,5.74-19.15,8.08-28.86,2.15-8.91-1.44-12.06-10.21-9.55-1.6.46-3.14,1.14-4.75,1.55-4.44,1.12-7.66-1.2-7.86-5.8-.08-1.81.06-3.73.58-5.45,3.32-10.83,6.72-21.63,10.19-32.42,3.7-11.52,7.85-22.9,11.14-34.53h-52.9c-1.7,5.2-3.37,10.42-4.85,15.69-2.74,9.76-4.7,19.77-6.46,29.76-.81,4.62,1.86,7.58,6.8,8.01,1.83.16,3.65.52,5.48.65,6.5.47,8.65,3.06,6.91,9.59-5.73,21.6-11.46,43.22-17.69,64.68-3.75,12.9-7.63,25.61-5.9,39.31.64,5.03,1.89,5.88,6.26,3.08,1.82-1.17,3.34-2.82,5.17-3.98,2.83-1.8,5.41-5.14,9.37-2.44,3.72,2.53,4.31,6.15,3.2,10.25-.87,3.22-1.9,6.41-2.55,9.68-5.15,25.69-10.17,51.4-15.34,77.09-3.21,15.95-5.37,32-6.92,48.12h50.36c.41-2.88.83-5.75,1.26-8.62Z"/>
        <path class="cls-2" d="M1581.33,254.12c-4.81-27.11-10.66-54.03-16.11-81.03-.71-3.5-.79-6.75,2.57-8.96,3.33-2.19,5.6.4,8.12,1.95,3.86,2.38,7.79,4.65,11.93,7.12,2.93-10.54,3.02-19.37-.42-31.79-6.67-24.09-13.72-48.07-20.56-72.12-3.04-10.7-2.07-16.29,11.02-15.79,4.73.18,7.47-2.48,7.08-7.13-.52-6.13-1.05-12.41-2.77-18.27-2.77-9.41-5.8-18.75-8.81-28.09h-53.29c.33,1.51.72,3,1.23,4.45,4.98,14.33,10.15,28.59,15,42.96,2.34,6.95,4.43,14.02,6.04,21.16,1.71,7.61-1.96,10.86-9.42,9.03-1.94-.48-3.91-.88-5.88-1.2-6.25-1.02-8.69.66-7.69,6.66,1.27,7.52,3.52,14.9,5.6,22.26,7.95,28.21,16.02,56.39,23.97,84.6.58,2.05,1.24,4.54.57,6.35-.76,2.06-2.76,3.95-4.7,5.11-.57.35-2.91-1.85-4.19-3.13-3.53-3.54-6.65-7.56-10.51-10.67-1.73-1.39-5.56-2.18-7.16-1.19-1.91,1.18-2.68,4.5-3.49,7.04-.43,1.33-.09,3.02.24,4.47,8.41,36.9,15.83,74,20.36,111.58h48.74c-2.12-18.5-4.21-37.04-7.46-55.36Z"/>
        <path class="cls-2" d="M1527.77,599.4c-2.33,13.13-5.19,26.17-7.38,39.32-.36,2.17.97,6.23,2.43,6.74,2.33.8,6,.13,8.08-1.34,4.06-2.88,7.3-6.89,11.15-10.12,1.21-1.01,3.57-1.78,4.85-1.28,1.31.52,2.28,2.64,2.76,4.26.4,1.35.13,3.04-.26,4.48-6.77,25.11-13.54,50.22-20.47,75.28-2.66,9.63-6.22,19.04-8.46,28.76-3.19,13.83,2.8,15.64,13.44,10.45,6.44-3.14,8.97-.91,8.62,6.25-.06,1.15-.26,2.33-.6,3.43-4.33,13.84-8.7,27.66-13.05,41.5-2.4,7.63-5.25,15.16-7.31,22.86h52.84c.65-2.03,1.27-4.06,1.85-6.1,3.27-11.51,6.41-23.11,8.5-34.87,1.33-7.53-1.62-10.27-9.31-10-7.7.27-12.29-2.24-9.35-12.73,6.79-24.24,13.71-48.43,20.55-72.66,3.04-10.76,3.57-21.67,2.1-33.11-5.99.35-9.92,4.14-14.17,7.13-4.4,3.1-9.09,1.33-9.74-4.07-.23-1.95-.02-4.04.4-5.98,1.42-6.69,3.23-13.31,4.51-20.02,5.74-30.18,11.58-60.35,16.9-90.61,1.54-8.77,2.88-17.6,3.89-26.46h-49.33c-3.47,26.43-8.77,52.63-13.42,78.9Z"/>
        <path class="cls-2" d="M171.13,553.59c1.47,16.35,3.17,32.69,4.62,49.05.67,7.57-1.73,14.02-7.15,19.6-7.09,7.3-9.53,16.33-8.17,26.35,1.34,9.95,2.75,19.88,4.26,29.81,3.21,21.15,6.35,42.3,9.81,63.41,1.55,9.45,1.53,18.33-2.67,27.39-2.8,6.06-4.27,13.01-4.97,19.71-1.45,13.89.67,27.51,3.21,41.07h49.77c-.66-3.58-1.46-7.16-2.13-10.74-3.05-16.21-8.79-31.9-8.91-48.69-.07-8.95,1.54-16.98,8.41-23.29,4.98-4.57,5.79-10.53,4.77-16.69-1.91-11.53-4.07-23.02-6.4-34.47-6.34-31.17-12.36-62.36-12.8-94.33-.1-7.51,2.01-9.72,9.07-8.72,7.21,1.03,9.42-.32,9.21-7.69-.51-18.1-1.44-36.19-2.56-54.26-.22-3.54-.55-7.07-.91-10.6h-49.37c.66,11.04,1.93,22.07,2.92,33.09Z"/>
        <path class="cls-2" d="M221.1,249.43c.44-8.63-1.97-10.34-10.58-8.64-3.83.76-6.24-.4-6.85-4.44-.27-1.81-.6-3.63-.63-5.44-.56-28.36,6.08-55.81,10.77-83.49,2.93-17.29,7.73-34.28,7.44-52.05-.06-4-1.22-6.95-4.09-9.75-7.5-7.3-10.45-16.4-8.45-26.62,3.37-17.18,7.37-34.24,10.8-51.42.5-2.52.97-5.06,1.32-7.59h-49.07c-1.45,8.88-2.91,17.75-4.29,26.64-2,12.88-.72,25.28,5.09,37.21,1.84,3.79,3.31,8.37,3.03,12.46-.85,12.31-2.29,24.6-4.15,36.8-3.24,21.3-7.29,42.48-10.36,63.81-2.01,13.96-1.42,27.48,10.9,37.73,4.92,4.1,5.97,10.44,5.18,16.59-1.16,8.94-3.47,17.75-4.27,26.71-1.54,17.15-2.83,34.34-3.72,51.53h48.23c1.24-20.02,2.67-40.02,3.7-60.05Z"/>
        <path class="cls-2" d="M77.45,549.51c1.04,15.22,2.43,30.41,3.49,45.63,1.23,17.73,2.76,35.47,3.2,53.23.3,12.16-.67,24.39-1.76,36.53-1,11.13-4.42,22.22-4.1,33.24.51,17.86,3.26,35.66,4.95,53.49,1.85,19.44,2.48,38.87.55,58.34h41.29c-.58-6.08-.65-12.19,1.04-18.53,2.7-10.07,3.85-20.77,4.1-31.23.64-26.42-4.84-52.29-8.39-78.33-2.27-16.66-1.89-33.15,5.66-48.6,2.4-4.92,3.15-9.77,2.9-15.03-.35-7.2-.42-14.42-.84-21.62-1.09-18.58-2.14-37.17-3.52-55.73-1.01-13.48-2.56-26.94-3.63-40.41h-46.38c.13,9.68.78,19.36,1.44,29.01Z"/>
        <path class="cls-2" d="M124.43,296.89c1.54-27.78,4.1-55.5,6.16-83.25,1.13-15.21-.47-30.09-6.3-44.29-3.58-8.72-5.15-17.81-4.05-27.03,2.6-21.76,5.89-43.43,8.65-65.17,1.82-14.34,3.02-28.8-.35-43.05-2.67-11.29-4.16-22.51-3.22-34.09h-40.58c.05,4.89.09,9.78.14,14.67.28,25.88-1.17,51.62-4.74,77.26-2.16,15.48-2.68,30.95.67,46.47,4.52,20.95,5.52,42.19,3.3,63.53-.88,8.49-2.44,16.91-3.05,25.42-1.03,14.22-1.65,28.47-2.25,42.72-.55,13.14-1.23,26.28-1.85,39.42h46.82c.2-4.2.41-8.4.65-12.6Z"/>
        <path class="cls-2" d="M1699.95,553.63c-.66,10.04-.53,20.14-1.31,30.17-.63,8.03,1.06,10.13,9,9.24,6.59-.74,7.13-.43,8.52,6.03.52,2.44.86,4.97.87,7.45.12,27.3-6.06,53.8-10.66,80.46-2.95,17.11-8.21,33.86-7.39,51.49.1,2.19.51,5.12,1.95,6.39,11.03,9.76,12.41,21.96,9.64,35.36-3.43,16.59-6.92,33.18-10.36,49.77h49.35c1.49-9.4,2.98-18.79,4.33-28.2,1.49-10.36.1-20.49-5.1-29.67-3.8-6.7-5.45-13.74-4.61-21.21,1.17-10.45,2.71-20.86,4.39-31.24,3.42-21.12,7.31-42.17,10.47-63.32,1.87-12.54,1.51-25.16-8.36-34.83-6.55-6.41-8.53-13.88-7.44-22.41,1.07-8.27,3.19-16.43,3.97-24.72,1.38-14.68,2.19-29.42,3.05-44.14.19-3.25.39-6.49.59-9.74h-48.24c-.9,11.04-1.93,22.08-2.65,33.13Z"/>
        <path class="cls-2" d="M1749.24,289.32c-1.01-17.56-3.06-35.06-4.66-52.58-.86-9.41-.81-18.69,6.93-25.62,8.11-7.27,10.05-16.55,8.55-26.54-4.61-30.74-9.55-61.43-14.56-92.1-1.82-11.14-1.54-21.66,3.38-32.29,2.85-6.18,4.58-13.65,4.18-20.39-.77-13.3-2.51-26.58-4.51-39.78h-48.42c1.05,8.48,2.6,16.92,4.61,25.19,3.44,14.19,7.17,28.22,6.38,42.99-.34,6.3-2.48,11.83-7.18,16.07-5.57,5.03-7.09,11.35-5.84,18.3,4.01,22.18,8.32,44.3,12.42,66.46,3.91,21.12,6.58,42.37,6.7,63.89.03,6.3-3.17,8.99-9.24,7.97-6.81-1.15-9.2.28-8.99,7.01.56,17.92,1.46,35.84,2.56,53.74.16,2.62.38,5.24.61,7.86h48.16c-.36-6.72-.72-13.44-1.11-20.16Z"/>
        <path class="cls-2" d="M1795.86,536.07c-2.55,27.54-4.29,55.15-6.37,82.74-1.16,15.38.41,30.4,6.31,44.76,3.58,8.71,5.13,17.81,4.02,27.04-2.58,21.59-5.79,43.1-8.57,64.66-1.89,14.68-3.12,29.46.38,44.03,2.45,10.18,3.79,20.31,3.3,30.69h40.25c0-5.8,0-11.59,0-17.39-.01-24.2,1.05-48.27,4.79-72.2,1.71-10.92,3.2-21.86,1.23-33.01-2-11.34-3.7-22.76-5.03-34.2-2.38-20.45-.57-40.88,1.05-61.29,1.8-22.72,4.44-45.39,5.49-68.14.36-7.75.68-15.5.96-23.25h-46.6c-.34,5.19-.73,10.38-1.21,15.57Z"/>
        <path class="cls-2" d="M1839.96,243.22c-1.04-15.89-2.49-31.76-3.72-47.64-1.21-15.74-2.02-31.51,1.68-47.04,5.3-22.23,4.7-44.49,1.05-66.85-3.39-20.74-4.87-41.63-3.88-62.64.3-6.35.79-12.7,1.19-19.04h-41.42c.6,6.98.68,13.83-.92,20.98-2.4,10.7-3.82,21.8-4.07,32.77-.59,26.08,4.93,51.61,8.37,77.32,2.32,17.36,1.52,34.34-6.39,50.47-1.34,2.73-2.14,6.07-2.06,9.09.44,16.27.97,32.54,1.97,48.78,1.13,18.4,2.87,36.77,4.21,55.16.36,4.97.78,9.94,1.19,14.91h46.54c-.47-22.1-2.31-44.19-3.75-66.27Z"/>
        <path class="cls-2" d="M480.15,289.09c2.23-13.99,5.63-27.79,8.34-41.71.82-4.22,2.17-9.39-3.48-11.1-5.59-1.69-7.23,3.58-9.35,7.24-4.6,7.95-8.86,16.11-13.73,23.89-1.15,1.84-4.16,3.55-6.29,3.53-3.39-.03-3.78-3.28-3.45-6.12.82-7.12.8-14.51,2.83-21.28,9.66-32.23,19.99-64.26,29.81-96.45,1.78-5.84,2.87-12.04,3.22-18.13.35-6.1-1.66-6.9-6.75-3.6-3.94,2.55-7.59,5.67-11.8,7.59-2.18,1-6.24.97-7.75-.43-1.96-1.82-2.58-5.4-3.06-8.35-.26-1.62.83-3.54,1.53-5.22,6.76-16.13,13.86-32.13,20.24-48.41,3.08-7.85,5.12-16.14,7.05-24.37,1.02-4.36-1.79-7.05-6.14-7.43-2.8-.24-5.67.17-8.5.33-6,.34-8.48-2.5-6.88-8.19,1.13-4,2.29-8.03,3.9-11.85,2.68-6.37,5.44-12.71,8.19-19.05h-53.46c-2.39,12.85-.5,16.66,11.88,13.11.32-.09.67-.05,1-.08,5.11-.44,6.47,1.16,5.95,6.4-1.54,15.41-8.19,29.15-13.71,43.29-3.88,9.93-7.42,20.02-10.43,30.24-1.1,3.73-2.14,8.7,2.34,11.47,4.57,2.83,9,1.06,13.07-1.71.28-.19.57-.36.83-.57,2-1.66,4.45-3.56,6.51-1.02,1.41,1.74,2.34,4.82,1.86,6.95-1.84,8.3-4.09,16.52-6.61,24.64-6.19,19.9-13.17,39.58-18.73,59.65-3.36,12.12-4.54,24.84-7.04,37.22-.58,2.89-1.29,5.94,1.63,6.89,1.68.54,4.92-1.17,6.33-2.83,5.08-5.98,9.6-12.43,14.51-18.56,2.4-2.99,6.26-3.88,8.91-1.58,1.62,1.41,1.83,5.33,1.46,7.96-.63,4.58-2.46,8.98-3.3,13.55-3.98,21.51-8.12,43-11.57,64.6-.52,3.28-1.02,6.57-1.5,9.86h48.92c1.03-6.8,2.11-13.6,3.19-20.39Z"/>
        <path class="cls-2" d="M439.12,586.73c1.61,9.07,3.45,18.09,5.05,27.16.28,1.61.56,4.12-.3,4.82-1.44,1.18-4.28,2.23-5.66,1.56-2.7-1.33-5.19-3.57-7.08-5.98-4.02-5.13-7.46-10.72-11.45-15.88-1.03-1.33-3.77-2.88-4.74-2.39-1.77.9-3.52,3.09-3.96,5.03-.61,2.69-.54,5.8.19,8.47,7.38,26.66,14.95,53.27,22.5,79.89,3.54,12.48,7.31,24.9,10.61,37.44,1.17,4.44-1.27,6.41-5.63,5.01-2.69-.86-5.21-2.26-7.75-3.52-6.87-3.4-12.66-.25-12.92,7.41-.09,2.75.6,5.67,1.58,8.28,6.2,16.56,12.71,33,18.84,49.58,2.25,6.08,4.01,12.37,5.52,18.67,1.4,5.89-.78,8.13-6.81,7.82-1.17-.06-2.35-.12-3.52-.27-6.43-.86-10.21,1.69-9.63,7.97.07.72.15,1.44.25,2.16h52.66c-2.88-6.78-5.8-13.55-8.73-20.32-1.8-4.17-4.8-8.42-2.02-12.67,2.56-3.91,7.24-2.98,11.52-2.61,8.32.72,11.71-3,9.74-11.16-1.59-6.6-3.94-13.07-6.48-19.39-5.42-13.46-11.34-26.71-16.73-40.18-1.97-4.92-2.79-10.28-4.55-15.29-1.03-2.94-2.65-5.59.42-8.15,2.81-2.34,5.6-1.51,8.32.22,3.94,2.51,7.77,5.22,11.85,7.48,1.77.98,4.47,1.95,5.97,1.25,1.26-.58,2.21-3.75,1.88-5.51-1.77-9.47-2.78-19.32-6.26-28.17-9.83-25.06-17.97-50.58-24.1-76.76-2.24-9.58-4.3-19.21-6.3-28.84-.71-3.42-.74-7.09,3.12-8.67,4.09-1.67,5.6,2.01,7.2,4.61,3.15,5.13,5.91,10.49,9.04,15.63,4,6.58,8.28,12.98,15.7,17.23.39-1.57,1.02-2.82.96-4.05-.42-8.63-.36-17.34-1.6-25.86-2.34-16.11-5-32.18-7.59-48.25h-50.75c3.54,22.13,7.71,44.16,11.64,66.23Z"/>
        <path class="cls-2" d="M1491.32,306.11c-2.06-15.05-4.69-30.04-7.32-45.01-2.64-14.96-5.62-29.86-8.35-44.81-.19-1.06.18-2.91.9-3.32,1.31-.74,3.28-1.24,4.6-.79,1.62.55,3.1,2.01,4.22,3.41,5.43,6.78,10.62,13.76,16.15,20.46.92,1.12,3.21,1.87,4.62,1.59,1.07-.21,2.52-2.39,2.46-3.63-.28-6.02-.27-12.2-1.71-17.98-4.83-19.39-9.98-38.72-15.48-57.93-4.85-16.95-10.42-33.7-15.38-50.62-.52-1.76.46-4.46,1.65-6.04.68-.9,3.38-.94,4.86-.44,6.04,2.02,11.96,4.39,17.93,6.63.58-.47,1.16-.94,1.73-1.41-1.17-7.35-1.35-15.03-3.7-21.98-5.4-15.94-12.04-31.45-17.8-47.28-2.04-5.61-3.24-11.56-4.39-17.44-.94-4.77,1.29-6.98,6.08-6.59,1.81.15,3.59.74,5.39,1.06,6.23,1.09,9.03-.76,8.36-6.97-.25-2.34-.58-4.7-.99-7.04h-53.49c4.22,10.38,8.47,20.75,12.45,31.23,1.9,5.01-.83,7.96-6.3,7.82-2.51-.07-5.02-.59-7.51-.47-6.14.28-8.39,2.46-7.71,8.51.55,4.92,1.63,9.94,3.44,14.54,8.17,20.76,19.44,40.29,24.68,62.19.62,2.6.85,6.78-.62,8.02-1.88,1.6-5.75,1.56-8.59,1.11-2.29-.36-4.34-2.36-6.48-3.65-3.84-2.32-7.67-4.65-12.11-7.35-1.86,13.87,1.68,25.83,6.09,37.68,10.59,28.46,20.3,57.22,26.25,87.06,1.9,9.55,2.44,19.37,3.69,29.91-7.29-2.42-10.38-6.99-13.21-12.05-4.72-8.45-9.63-16.79-14.62-25.08-1.58-2.62-4-5.5-7.21-3.4-1.55,1.01-2.37,4.59-2.04,6.78,3.13,20.81,6.04,41.68,10.04,62.34.28,1.43.53,2.86.8,4.29h49.04c-.15-1.12-.29-2.25-.44-3.37Z"/>
        <path class="cls-2" d="M1437.87,550.41c-1.8,11.89-3.68,23.76-5.38,35.66-.44,3.12-.01,6.75,3.8,7.01,2.3.15,5.67-1.31,6.99-3.16,4.83-6.8,8.98-14.08,13.44-21.15,1.69-2.67,3.76-5.04,7.35-3.59,3.26,1.32,4.34,4.05,3.72,7.42-1.49,8.04-2.31,16.29-4.68,24.07-9.17,30.12-18.82,60.1-28.32,90.12-2.39,7.56-4.12,15.14-1.41,23.95,3.41-1.74,6.65-3.3,9.8-5.01,3.8-2.06,7.4-4.53,11.31-6.32,4.19-1.92,7.02.43,6.35,4.98-.39,2.63-.76,5.33-1.68,7.8-5.27,14.03-10.73,27.99-16.07,41.99-3.74,9.81-7.74,19.54-10.93,29.53-2.24,7,2.05,11.39,9.44,10.64,1.33-.14,2.65-.51,3.98-.54,7.59-.2,11,3.97,8.85,11.23-1.09,3.66-2.79,7.14-4.35,10.64-2.14,4.79-4.34,9.55-6.53,14.32h52.81c1.13-7.78-3.75-12.42-12.3-10.13-.79.21-1.67.14-2.51.13-4.42-.07-6.29-2.13-5.33-6.37,1.32-5.85,2.48-11.8,4.51-17.42,6.33-17.56,13.03-35,19.61-52.47,1.73-4.58,1.81-9.03-1.99-12.49-3.91-3.56-8.47-3.54-13.03-.95-1.02.58-2.03,1.21-3.12,1.63-4.19,1.64-5.85.66-5.38-3.79.66-6.3,1.17-12.76,2.99-18.77,6.64-21.85,13.95-43.49,20.71-65.3,4.52-14.57,7.78-29.43,7.7-44.8,0-1.38-1.13-3.8-1.95-3.89-1.4-.16-3.4.76-4.39,1.89-4.18,4.8-8.06,9.86-12.11,14.78-2.02,2.46-3.85,5.23-6.35,7.09-1.54,1.14-4.26,1.28-6.26.9-.68-.13-1.26-3.26-1.09-4.94.37-3.64,1.28-7.23,1.91-10.85,4.26-24.52,8.58-49.03,12.73-73.56.57-3.39,1.18-6.78,1.78-10.17h-49.88c-1.59,9.97-3.25,19.93-4.76,29.91Z"/>
        <path class="cls-2" d="M623.49,523.57c-1.06-1.01-2.07-2.03-3.05-3.08h-32.53c7.4,34.65,18.7,68.23,32.35,101.04,1.39,3.33,2.29,7.03,2.55,10.63.3,4.25-3.73,6.56-7.61,4.64-1.6-.79-2.93-2.19-4.3-3.4-5.77-5.11-11.34-10.47-17.32-15.31-3.14-2.54-7-4.2-10.97-6.5-.16,1.62-.32,2.29-.28,2.94.06.82.28,1.64.43,2.46,3.21,17.48,10.8,33.25,18.61,49,7.48,15.1,14.52,30.43,21.44,45.8,2.23,4.95,1.1,6.63-4.35,6.14-4.7-.42-9.28-2.29-13.87-3.69-4.72-1.44-9.36-3.85-14.18-.3.9,10.7,6.25,19.39,11.29,28.29,7.09,12.52,13.92,25.18,20.69,37.87,2.62,4.92,1.37,7.04-4.16,7.77-3.15.41-6.33.74-9.5.81-12.41.28-14.48,3.46-8.61,14.5,4.79,9.01,9.81,17.9,14.81,26.8h33.68c1.34-.9,3.18-1.61,5.58-2.15,1.94-.44,3.96-.57,5.94-.8,8.04-.94,10.52-5.08,7.31-12.45-.86-1.99-1.96-3.9-3.13-5.72-5.08-7.89-10.29-15.68-15.31-23.6-3.04-4.8-6.31-9.54-8.58-14.7-2.55-5.8,1.08-10.44,7.39-10.02,3.81.26,7.59,1.65,11.37,1.62,3.09-.03,6.97-.53,9.08-2.41,3.03-2.71,1.16-6.48-.83-9.59-6.04-9.45-12.26-18.8-18.02-28.42-5.07-8.47-9.72-17.19-14.31-25.92-1.68-3.19-2.52-6.77.99-9.57,3.33-2.66,6.5-1.25,9.78.42,4.73,2.41,9.48,4.9,14.49,6.6,1.92.65,5.35-.08,6.62-1.5,1.2-1.34,1.36-4.85.47-6.65-8.33-16.77-17.42-33.17-25.43-50.09-6.85-14.47-12.59-29.46-18.75-44.25-1.3-3.11-1.04-6.56,2.37-7.58,1.75-.53,4.84,1.17,6.43,2.75,5.31,5.3,9.86,11.39,15.37,16.44,4.87,4.47,10.54,8.11,16.11,11.74,1.12.73,3.6.16,4.98-.63.75-.43,1.03-2.8.61-3.95-5.07-13.76-10.23-27.48-15.52-41.16-6.11-15.81-11.31-31.76-15.56-47.88h-14.95c.14,1.03.27,2.05.41,3.08Z"/>
        <path class="cls-2" d="M658.38,251.57c3.28-8.55,7.2-16.85,10.32-25.46.72-2-.09-5.13-1.31-7.02-.61-.94-4.36-1.11-5.62-.18-10.76,7.97-21.91,15.59-28.82,27.66-.99,1.74-2.93,3.33-4.8,4.08-3.2,1.29-6.43-1.71-5.44-4.79,2.13-6.65,3.72-13.58,6.73-19.82,10.89-22.57,22.3-44.87,33.43-67.32,1.99-4.01,4.35-8.09,5.13-12.39,1.12-6.12-3.38-9-9.14-6.43-3.5,1.57-6.85,3.48-10.35,5.06-4.11,1.86-8.43,5.79-12.78,1.3-4.42-4.54-1.02-9.05,1.42-13.22,9.73-16.61,19.73-33.07,29.18-49.84,5.36-9.5,3.91-11.39-7.1-11.42-5.17-.01-10.35.06-15.5-.33-3.04-.23-4.44-2.3-3.26-5.38.95-2.48,1.91-5,3.26-7.27,5.99-10.07,12.21-20,18.17-30.08,2.29-3.87,4.61-7.84,6-12.06,1.76-5.34-.08-8.17-5.54-9.72-3.03-.86-6.22-1.15-9.32-1.77-4.85-.96-7.23-2.46-7.37-5.18h-28.54c-.72,1.34-1.46,2.67-2.23,3.97-4.21,7.04-9.36,13.54-13.24,20.73-2.28,4.23-3.7,9.3-4.03,14.09-.33,4.84,3.42,6.86,8.25,5.59,2.73-.72,5.41-1.74,8.18-2.2,6.13-1.02,10.41,3.49,8.89,9.58-.83,3.35-2.2,6.66-3.89,9.68-7.91,14.17-16.22,28.11-23.92,42.38-2.53,4.69-3.65,10.13-5.36,15.04,6.04,3.49,10.61,1.07,15.37-.48,4.39-1.43,8.88-3.03,13.42-3.36,5.2-.38,6.25,1.2,4.2,5.92-5.78,13.29-11.6,26.59-18.03,39.58-7.93,16.03-16.74,31.66-20.64,49.31-.46,2.1.54,5.7,2.11,6.74,1.61,1.07,5.11.57,7.11-.51,2.88-1.55,5.21-4.15,7.65-6.45,4.52-4.26,8.74-8.88,13.55-12.77,1.51-1.21,5.2-1.48,6.69-.45,1.44,1,2.28,4.52,1.71,6.44-2.35,7.97-5.01,15.89-8.13,23.59-11.03,27.26-19.74,54.94-26.02,83.05h50.35c5.32-19.61,11.95-38.87,19.26-57.91Z"/>
        <path class="cls-2" d="M1299.65,210.96c-1.29-3.03-1.89-6.44-2.27-9.73-.18-1.56.48-4.2,1.53-4.7,1.68-.79,4.18-.69,6.01-.04,1.78.62,3.23,2.31,4.68,3.69,5.73,5.43,11.2,11.16,17.22,16.24,1.75,1.48,5.77,2.35,7.39,1.33,1.58-.99,2.35-4.96,1.86-7.27-3.4-15.82-10.8-30.08-17.87-44.49-7.28-14.82-14.15-29.85-20.9-44.92-2.12-4.73-1.16-6.25,4.06-6.07,4.34.16,8.64,1.85,12.92,2.98,3.35.89,6.59,2.53,9.97,2.84,4.42.4,6.49-2.56,5.12-6.83-.91-2.84-2.26-5.58-3.7-8.22-8.63-15.87-17.46-31.64-25.9-47.61-1.55-2.93-2.39-6.7-2.17-9.99.37-5.4,4.46-7.53,9.7-5.94,2.87.87,5.69,1.95,8.61,2.54,2.94.6,5.08-.46,6.08-3.69,1.51-4.88.42-9.17-2.06-13.41-5.4-9.2-10.78-18.43-16.1-27.68h-29.51c-.24,3.88-4.13,5.42-12.33,5.91-9.55.57-12.96,5.89-8.76,14.48,2.63,5.4,6.12,10.37,9.2,15.55,5.46,9.19,11.21,18.23,16.23,27.66,2.91,5.47,1.54,7.85-4.64,8.35-5.8.47-11.69-.4-17.54-.46-5.13-.05-6.71,2.19-5.04,7.05.65,1.88,1.66,3.67,2.69,5.39,5.24,8.77,10.6,17.46,15.81,26.24,5.21,8.78,10.61,17.47,15.21,26.57,1.2,2.37.57,6.58-.78,9.11-1.89,3.54-5.67,2.72-8.91,1.14-3.15-1.54-6.19-3.38-9.43-4.69-4.1-1.66-8.35-6.11-12.8-1.53-4.4,4.53-.74,9.04,1.41,13.27,15.15,29.87,34.18,57.93,42.34,91.04.32,1.31.47,3.47-.26,4.05-1.26,1.01-3.46,1.79-4.89,1.37-1.72-.5-3.45-2.09-4.46-3.67-6.56-10.22-15.32-18.19-25.14-25.11-1.91-1.34-3.9-2.77-6.07-3.45-1.32-.41-3.42.13-4.5,1.04-.77.65-.95,2.8-.53,3.97,5.17,14.27,10.37,28.52,15.8,42.69,5.5,14.35,10.44,28.84,14.61,43.51h50.08c-7.61-33.72-18.36-66.55-31.96-98.52Z"/>
        <path class="cls-2" d="M1275.15,545.79c-7.29,20.91-15.86,41.37-23.66,62.11-.62,1.65-.37,4.61.73,5.65,1.08,1.02,4.33,1.21,5.61.31,6.15-4.31,12.29-8.76,17.8-13.85,5.41-4.99,9.94-10.92,15.11-16.19.99-1.01,3.53-1.65,4.62-1.08,1.15.61,2.28,3.11,1.94,4.39-1.56,5.94-3.01,12.04-5.63,17.54-12.73,26.7-25.79,53.24-38.83,79.79-1.22,2.49-3.25,5.2-.27,7.04,2.19,1.35,5.72,2.07,8.08,1.3,5.17-1.68,10.05-4.32,14.9-6.86,5.3-2.78,10.61-.25,10.77,5.73.07,2.52-.77,5.35-2.03,7.55-5.4,9.44-11.11,18.72-16.73,28.03-5.19,8.6-10.68,17.04-15.53,25.83-3.46,6.27-1.76,8.74,5.26,8.52,5.02-.16,10.02-.81,15.04-1.11,6.23-.36,9.35,3.75,7.38,9.67-.52,1.57-1.2,3.13-2.09,4.51-3.91,6.05-8.18,11.87-11.83,18.07-4.64,7.89-9.23,15.87-13.01,24.19-2.42,5.34.82,9.42,6.75,10.09,2.16.24,4.34.38,6.46.83,2.47.52,4.31,1.2,5.59,2.12h33.6c5.49-9.88,10.94-19.79,16.15-29.81,3.9-7.49,1.7-10.85-6.71-11.53-5.96-.48-11.93-.9-19.45-1.46,3.7-8.22,6.69-15.96,10.56-23.22,5.59-10.49,12.16-20.45,17.63-30.99,3.08-5.94,4.77-12.6,7.09-18.93-.42-.62-.84-1.24-1.26-1.87-3.94.5-7.96.66-11.79,1.61-3.69.92-7.09,3.22-10.8,3.86-3.13.54-6.52-.43-9.79-.74.45-2.66.34-5.58,1.44-7.93,8.5-18.15,17.23-36.18,25.89-54.25,6.64-13.84,12.29-28,13.75-44-5.4,3.03-10.53,6.34-15.24,10.18-5.72,4.66-10.94,9.93-16.68,14.56-1.54,1.25-4.7,2.17-6.15,1.41-1.49-.79-2.3-3.77-2.5-5.88-.19-2.05.57-4.29,1.29-6.31,2.81-7.85,5.57-15.73,8.71-23.45,10.73-26.39,18.85-53.32,24.7-80.73h-49.17c-2.27,8.51-4.84,16.94-7.75,25.3Z"/>
        <path class="cls-2" d="M1143.78,524.72c-4.9,7.3-11.71,12.99-19.84,16.61-1.56.7-4.35.2-5.74-.85-.85-.65-.55-3.56.02-5.17,1.23-3.44,3.01-6.68,4.52-10.03.72-1.59,1.43-3.19,2.13-4.79h-13.05c-7.52,13.4-16.47,26.13-26.63,38.27-6.01,7.18-11.74,14.52-13.63,24.18,7.6,3.35,14.59,1.5,21.65-.92,7.03-2.41,14.17-4.52,21.26-6.76.63.65,1.26,1.3,1.89,1.94-2.9,5.15-5.15,10.83-8.82,15.36-10.77,13.27-21.77,26.38-33.38,38.91-4.87,5.26-2.95,11.58,4.19,12.9,4.54.84,9.32.92,13.95.67,6.41-.35,9.9,3.69,7.55,9.7-.89,2.27-2.3,4.48-3.96,6.26-4.47,4.79-9.27,9.26-13.81,13.98-3.02,3.14-6.04,6.34-8.67,9.8-4.38,5.75-3.56,9.55,2.72,13.03,3.35,1.85,6.94,3.29,10.48,4.77,8.32,3.47,9.48,7.21,4.31,14.49-1.06,1.49-2.42,2.78-3.68,4.13-4.11,4.42-8.31,8.76-12.34,13.25-4.83,5.39-4.89,9.22.04,14.5,2.96,3.18,6.47,5.85,9.58,8.9,5.43,5.32,5.39,8.87.6,14.78-3.9,4.81-7.7,9.74-11.12,14.9-4.46,6.74-3.28,12.56,3,17.62,1.31,1.05,2.62,2.11,3.81,3.29,5.34,5.26,6,9.65,2.1,16.18-1.11,1.86-2.41,3.6-3.7,5.35h39.02c.24-1,.57-2.04,1.03-3.12.91-2.14,2.06-4.23,3.42-6.12,3.81-5.31,7.78-10.5,11.69-15.74,4.84-6.48,3.75-10.36-3.76-13.57-3.06-1.31-6.27-2.36-9.1-4.05-4.35-2.6-5.52-6.52-3.58-11.22.95-2.3,2.14-4.59,3.68-6.53,5.12-6.43,10.31-12.82,15.72-19,6.9-7.89,5.78-12.58-4.08-16.4-3.88-1.5-7.81-3.05-11.38-5.14-4.53-2.66-5.24-5.62-2.39-10.1,2.23-3.51,5.2-6.53,7.79-9.82,6.7-8.53,13.5-16.99,19.92-25.72,1.28-1.74,1.03-4.59,1.49-6.93-2.53-.47-5.08-1.41-7.59-1.3-4.99.21-9.96,1.42-14.94,1.43-7,.02-11.09-6.68-7.53-12.59,3.43-5.71,7.75-10.89,11.81-16.2,8.22-10.75,16.85-21.2,24.65-32.24,3.11-4.4,4.44-10.06,6.92-15.94-12.39,4.78-23.41,9.1-34.49,13.25-3.39,1.27-6.86,1.89-9.49-1.78-2.61-3.64-.17-6.32,1.66-9.06,7.63-11.41,15.59-22.61,22.95-34.19,9.66-15.2,18.38-30.83,24.95-47.4h-21.01c-.93,1.4-1.84,2.82-2.78,4.22Z"/>
        <path class="cls-2" d="M1117.69,296.62c-.52-1.14-.57-3.41.13-4,1.19-1.01,3.16-1.47,4.8-1.45,1.17.01,2.38,1.1,3.47,1.86,6.73,4.71,12.65,10.26,17.85,16.45h21.8c-1.86-4.49-3.96-8.89-6.36-13.16-12.53-22.29-26.11-44-39.14-66.02-1.34-2.27-1.97-4.96-2.93-7.45,3.04-.66,6.07-1.37,9.12-1.95.61-.12,1.32.19,1.96.39,8.39,2.62,17.15,4.28,24.23,10.21,1.27,1.07,4.64,1.38,5.74.47,1.41-1.17,2.27-4.05,1.95-5.96-.42-2.49-1.92-4.98-3.49-7.07-12.38-16.49-24.99-32.82-37.24-49.41-1.52-2.06-2.33-5.6-1.74-8.04.88-3.62,4.46-4.8,8.12-4.33,4.58.59,9.12,1.86,13.7,2.03,2.67.1,6.25-.62,7.82-2.4,1.28-1.45,1.2-5.71-.04-7.49-5.33-7.66-11.27-14.91-17.09-22.23-3.44-4.32-7.42-8.24-10.53-12.77-4.8-6.99-3.74-9.77,4.16-12.59,3.28-1.17,6.7-1.97,10.06-2.94,8.27-2.38,9.98-7.04,5.04-14.11-1.82-2.61-3.98-4.97-5.94-7.48-4.73-6.07-9.94-11.84-13.99-18.34-3.85-6.17-1.47-11.66,5.2-14.65,1.97-.89,4.07-1.5,6.06-2.35,6.33-2.69,7.79-6.39,4.31-12.23-4.54-7.62-9.28-15.14-14.26-22.48-2-2.94-3.11-5.18-3.27-7.14h-39.8c1.18,1.64,2.38,3.27,3.52,4.93,6.26,9.15,5.26,15.83-3.36,22.59-7.26,5.7-8.3,10.33-3.3,18.12,3.33,5.19,7.13,10.12,11.09,14.85,4.9,5.84,4.57,10.93-1.6,15.31-1.63,1.16-3.48,2.01-5.2,3.04-7.74,4.68-9.17,10.55-4.36,18.12.8,1.27,1.72,2.48,2.71,3.61,4.96,5.68,10.18,11.16,14.89,17.04,4.02,5.02,3.34,7.45-2.36,10.73-3.04,1.75-6.27,3.17-9.44,4.68-9.51,4.53-10.9,10.14-4.04,18,7.17,8.21,14.88,15.96,21.85,24.33,1.87,2.25,3.19,6.52,2.32,8.99-.64,1.8-5.24,2.44-8.19,3.12-4.8,1.12-9.98,1.12-14.46,2.93-6.63,2.67-7.38,5.95-2.9,11.61,6.03,7.62,12.84,14.62,18.94,22.17,7.04,8.71,13.72,17.71,20.45,26.67,1,1.33,1.43,3.08,2.12,4.64-.33.51-.66,1.02-.99,1.53-4.96-1.09-9.96-2-14.86-3.32-6.41-1.74-12.65-4.2-19.13-5.54-2.5-.52-6.95.36-7.85,2.04-1.21,2.25-.19,5.97.55,8.89.46,1.83,2.05,3.43,3.3,4.99,4.53,5.61,9.29,11.04,13.67,16.76,7.16,9.34,13.54,18.89,19.13,28.65h13.51c-1.86-4.3-3.76-8.59-5.71-12.86Z"/>
        <path class="cls-2" d="M801.39,533.45c.78,1.84.81,5.57-.26,6.29-1.9,1.28-5.17,1.77-7.38,1.07-2.71-.87-5.35-2.92-7.27-5.12-4.41-5.03-8.99-9.98-13.17-15.19h-20.49c10.4,26.11,25.15,50.09,42.16,72.95,2.1,2.82,4.9,5.36,6.08,8.52.97,2.6,1.09,6.73-.38,8.69-1.4,1.86-5.33,2.05-8.22,2.48-1.34.2-2.91-.64-4.27-1.24-7.03-3.06-13.97-6.36-21.1-9.18-1.68-.66-4.68-.51-5.76.57-1.04,1.04-1.11,4.17-.31,5.7,2.41,4.55,5.21,8.94,8.29,13.06,10.14,13.57,20.6,26.89,30.6,40.56,1.76,2.41,3.14,6.39,2.43,9.03-1.08,4.02-5.5,4.15-9.33,4.11-7.64-.07-15.28-.02-24.28-.02,3.48,5.89,5.96,11.01,9.28,15.51,6.98,9.44,14.52,18.45,21.59,27.83,4.36,5.79,3.14,10.15-3.41,13.31-3.45,1.67-7.14,2.85-10.62,4.45-7.7,3.54-8.74,6.67-3.64,13.52,4.29,5.76,9.18,11.09,14.07,16.38,10.85,11.73,9.58,17.79-5.24,24-.15.06-.32.11-.47.18-8.44,3.59-9.36,7.04-4.2,14.54,4.75,6.9,9.39,13.88,13.9,20.94.88,1.38,1.59,2.55,2.12,3.58h38.51c-.28-.38-.56-.76-.84-1.15-6.91-9.45-6-16.67,3.11-23.78,6.67-5.21,7.87-10.27,3.33-17.38-3.32-5.2-7.12-10.15-11.14-14.84-5.35-6.23-4.85-11.91,2.03-16.37,2.25-1.46,4.78-2.51,6.88-4.15,5.34-4.16,6.21-9.2,2.83-15.09-.83-1.44-1.79-2.86-2.91-4.08-5.1-5.55-10.44-10.9-15.39-16.58-4.81-5.52-4.22-8.17,2.24-11.7,3.36-1.83,6.93-3.28,10.39-4.94,8.68-4.16,10.09-9.7,3.82-17.07-4.89-5.74-10.41-10.94-15.51-16.51-3.16-3.45-6.49-6.88-8.94-10.82-3.53-5.67-.53-10.08,6.12-10.16,5.33-.06,10.84.16,15.95-1.09,7.18-1.75,8.38-8.71,2.94-13.75-1.6-1.48-3.32-2.87-4.72-4.53-10.16-12.05-20.4-24.05-30.28-36.33-2.86-3.55-4.6-8-7.16-12.57,9.64-1.22,16.73,2.59,24.1,5.04,6.87,2.28,13.69,4.31,20.92,1.08-1.3-9.16-5.98-16.42-11.91-22.93-11.08-12.19-20.78-25.36-28.63-39.79h-12.21c1.97,4.3,3.93,8.6,5.77,12.96Z"/>
        <path class="cls-2" d="M783.61,301.94c3.85-3.71,8.02-7.18,12.43-10.2,1.33-.91,4.2-.44,5.87.39.68.34.51,3.54-.12,5.1-1.68,4.12-3.53,8.18-5.36,12.25h13.14c6.08-10.59,13.14-20.74,21.23-30.43,5.96-7.14,11.23-14.99,15.88-23.05,3.2-5.54,1-8.8-5.26-7.73-8.78,1.49-17.31,4.43-25.93,6.83-3.79,1.06-7.52,2.61-11.65-.63,3.96-5.9,7.3-11.98,11.69-17.18,9.61-11.4,19.81-22.3,29.63-33.52,5.17-5.9,3.6-12.44-3.92-14.75-4.36-1.34-9.27-.81-13.85-1.58-2.56-.43-6.3-1.17-7.11-2.9-1.02-2.18-.5-6.15.96-8.21,3.46-4.89,7.88-9.09,11.89-13.59,4.57-5.12,9.55-9.95,13.53-15.5,3.93-5.48,2.38-9.58-3.79-12.45-2.71-1.26-5.68-1.93-8.43-3.09-8.17-3.43-9.95-8.51-4.73-15.64,4.04-5.52,9.06-10.32,13.57-15.5,8.46-9.72,7.26-16.48-3.99-22.92-8.95-5.12-9.87-10.13-3.44-18.19,3.44-4.32,6.96-8.59,10.1-13.13,2.7-3.91,2.69-8.29.06-12.28-2.48-3.77-5.28-7.34-8.06-10.9-4.39-5.62-4.62-8.97-.67-15.01,1.8-2.75,3.87-5.34,5.62-8.12h-40.65c-.06,2.39-.86,4.97-2.43,7.75-3.36,5.95-7.75,11.32-11.53,17.04-6.99,10.58-6.35,14.38,5.22,18.57,9.93,3.59,11.53,10.04,5.57,18.9-.84,1.24-1.82,2.39-2.74,3.58-5.42,7.04-11.15,13.87-16.16,21.2-3.88,5.68-2.49,8.59,4.14,10.66,4.44,1.39,9.09,2.2,13.41,3.89,5.68,2.22,6.55,5.44,3.44,10.69-.85,1.43-1.92,2.75-2.96,4.06-8.25,10.34-16.57,20.63-24.77,31.01-2.29,2.89-3.63,6.05-1.04,9.62,2.53,3.48,5.78,2.51,9.1,1.76,3.9-.89,7.89-2.48,11.72-2.19,3.06.23,6.82,2.2,8.58,4.62,1.19,1.63.21,5.85-1.14,8.12-3.06,5.16-6.79,9.96-10.53,14.69-10.68,13.52-22.73,26.05-30.07,41.94-.67,1.46-1.14,4.16-.38,4.86,1.16,1.08,3.6,1.52,5.25,1.15,2.37-.54,4.47-2.18,6.78-3.14,7.08-2.93,14.06-6.25,21.39-8.37,2.53-.73,6.44,1.04,8.72,2.89.91.74-.29,5.2-1.59,7.3-4.41,7.11-9.36,13.89-14.01,20.86-12.36,18.56-23.66,37.62-32.13,58.01h22.36c2.28-2.6,4.66-5.11,7.18-7.54Z"/>
        <path class="cls-2" d="M1635.34,526.45c-1.33,14.69-1.96,29.5-4.37,44.01-4.62,27.82-10.09,55.5-15.58,83.16-2.47,12.45-6.07,24.66-4.32,37.61.71,5.27,2.7,6.8,7.62,4.73,1.69-.71,3.37-1.52,5.12-2.03,5.77-1.65,8.81.54,8.41,6.64-.3,4.46-1.31,8.93-2.43,13.28-6.26,24.22-12.66,48.4-18.98,72.6-2.75,10.53-.2,17.11,8.32,21.78,7.89,4.32,8.9,6.45,6.52,15.12-.61,2.22-1.23,4.43-1.84,6.64h35.63c-3.95-5.46-4.87-11.93-3.35-19.04,5.15-23.98,10.42-47.93,15.85-71.85,2.61-11.49-1.5-16.77-11.01-18.31-1.68-.27-4.18-2.8-4.27-4.39-.38-7.03-.9-14.25.25-21.13,4.4-26.36,9.49-52.61,14.21-78.92,4.18-23.29,7.44-46.68,6.49-70.43-.07-1.79-1.54-4.84-2.65-4.97-1.91-.24-4.53.87-5.98,2.3-1.97,1.94-2.84,4.96-4.72,7.04-1.24,1.37-4.2,3.08-5.02,2.54-1.56-1.02-3.05-3.56-3-5.43.24-8.96.54-17.92.85-26.88h-21.18c-.2,1.98-.39,3.97-.57,5.95Z"/>
        <path class="cls-2" d="M1656.35,286.12c-.02-1.55.96-4.13,2-4.44,1.56-.46,4.07.15,5.3,1.26,2.07,1.86,3.16,4.81,5.22,6.68,1.55,1.4,4.26,2.86,5.92,2.39,1.4-.39,2.85-3.51,2.87-5.43.05-7.04-.52-14.08-.8-21.12-1.19-30.2-7.43-59.67-12.76-89.29-3.28-18.21-9.06-36.08-7.67-55,.55-7.41,2.36-9.97,9.87-10.25,3.86-.15,5.66-1.82,5.32-5.57-.83-9.32-1.03-18.78-2.83-27.92-3.06-15.53-7.28-30.82-10.78-46.27-2.53-11.19-3.19-21.91,3.79-31.17h-39c.94,3.5,1.85,7,2.71,10.52,2.72,11.15.12,15.09-9.84,16.61-1.66.25-4.23,2.42-4.3,3.8-.31,6.17-.85,12.6.48,18.53,3.5,15.6,7.97,30.98,11.98,46.47,2.76,10.66,5.56,21.3,8,32.03,2,8.79-2.4,12.87-11.19,10.84-1.13-.26-2.26-.57-3.41-.73-4.01-.56-6.22,1.23-6.07,5.27.32,8.36-.04,16.88,1.46,25.05,4.32,23.46,9.9,46.69,14.06,70.17,3.26,18.44,5.57,37.08,7.5,55.71.53,5.06.97,10.13,1.37,15.21h21.19c-.16-7.79-.31-15.57-.42-23.36Z"/>
        <path class="cls-2" d="M288.87,267.81c3.61-25.29,8.43-50.4,12.58-75.61,2.56-15.53,9.59-30.28,7.61-46.65-.85-7.02-2.18-8.64-9.06-7.07-10.22,2.34-14.02-1.39-11.48-11.77,4.52-18.46,9.28-36.85,13.95-55.27,2.66-10.49,6.82-20.62,6.52-31.76-.27-10.29-.06-10.3-9.76-14.09-5.45-2.13-7.11-6.61-4.93-14.97.93-3.55,1.87-7.09,2.82-10.63h-38.95c4.83,5.52,6.66,12.17,5.48,19.56-1.84,11.52-4.23,22.97-6.9,34.33-3.67,15.6-8.31,31-8.33,47.24-.01,8.7,1.25,9.78,10.01,10.93,1.85.24,4.77,2.69,4.86,4.26.45,7.36,1.01,14.92-.17,22.13-3.94,24.04-8.61,47.96-13.02,71.92-4.64,25.23-8.39,50.56-7.74,76.31.05,1.85,1.52,5.14,2.47,5.19,2.12.12,4.67-.96,6.41-2.35,1.75-1.4,2.4-4.2,4.17-5.57,1.72-1.33,4.43-2.46,6.33-2.04,1.12.25,1.75,3.67,2.16,5.75.28,1.42-.31,2.98-.35,4.48-.15,5.77-.32,11.55-.48,17.32h21c1.33-13.93,2.82-27.84,4.79-41.67Z"/>
        <path class="cls-2" d="M263.71,547.89c.05,1.71-1.51,4.52-2.89,4.92-1.35.4-3.83-1.24-5.07-2.64-1.98-2.22-3.01-5.32-5.08-7.41-1.29-1.3-3.92-2.18-5.65-1.82-1.18.25-2.64,2.97-2.61,4.57.16,10.74-.21,21.59,1.26,32.18,3.62,26.14,8.21,52.15,12.28,78.24,2.82,18.1,9.11,35.69,7.7,54.45-.61,8.05-2,10.83-10.04,12.5-4.02.84-5.51,2.85-5.17,6.56.79,8.49,1.02,17.11,2.7,25.44,3.53,17.48,8.03,34.76,11.77,52.21,1.77,8.25,1.46,16.09-2.7,22.89h36.03c-.31-1.12-.63-2.24-.94-3.36-3.11-11.16-1.11-16.09,8.62-20.91,5.76-2.85,7.28-5.4,6.71-11.95-.24-2.82-.71-5.65-1.44-8.38-5.22-19.31-10.69-38.55-15.75-57.9-2.23-8.55-3.8-17.28-5.47-25.97-1.2-6.28,1.7-9,7.91-7.53,2.09.49,4.06,1.52,6.1,2.24,4.16,1.48,6.61.43,6.77-3.71.29-7.37.91-14.93-.36-22.11-3.54-20.02-8.36-39.82-11.95-59.84-3.66-20.39-7.1-40.86-9.49-61.43-1.11-9.52-1.98-19.07-2.71-28.64h-21.46c.34,9.13.67,18.26.93,27.39Z"/>
        <path class="cls-2" d="M506.58,299.9c4.88-9.12,10.04-18.09,15.47-26.89.94-1.53,3.78-1.89,5.74-2.79.72,1.94,1.53,3.86,2.1,5.84.22.75-.05,1.67-.23,2.49-2.23,10.28-4.15,20.59-5.81,30.94h15.67c5.62-31.11,13.91-61.48,25.22-91.06,4.65-12.16,9.51-24.25,13.69-36.57.96-2.83-.51-6.48-.85-9.75-3.31.49-6.65.85-9.92,1.55-1.03.22-1.86,1.38-2.77,2.12-4.04,3.27-7.91,6.79-12.21,9.68-1.6,1.07-5.01,1.63-6.17.68-1.74-1.42-3.04-4.39-3.02-6.69.03-3.23,1.02-6.64,2.34-9.64,5.98-13.57,12.28-27,18.34-40.54,4.91-10.97,9.81-21.94,14.26-33.09.8-2.01.14-5.6-1.28-7.16-1.06-1.18-4.55-.77-6.73-.2-4.5,1.17-8.83,3.01-13.28,4.41-4.02,1.26-8.08-1.28-8.18-5.52-.06-2.52.77-5.28,1.94-7.55,5.15-9.95,10.69-19.69,15.87-29.63,4.09-7.84,8.24-15.69,11.65-23.83,2.76-6.57.53-9.33-6.62-9.62-2.68-.11-5.37.05-8.05,0-7.26-.13-10.41-4.29-8.44-11.25.5-1.75,1.28-3.47,2.18-5.05.14-.25.28-.5.42-.75h-24.89c-.06.21-.12.42-.19.65-.4,1.27-.89,2.52-1.46,3.72-7.3,15.56-14.72,31.08-21.88,46.71-1.49,3.26-2.7,6.91-2.92,10.45-.41,6.93,3.13,8.75,9.53,6.19,3.62-1.45,7.69-1.98,11.61-2.4,3.83-.41,5.72,1.87,5.04,5.61-.56,3.08-1.38,6.19-2.61,9.06-8.18,19.01-16.7,37.87-24.65,56.97-2.4,5.77-3.69,12.1-4.74,18.29-.32,1.91,1.33,5.18,3.02,6.12,1.66.92,4.92.32,6.78-.79,4.59-2.73,8.59-6.47,13.22-9.13,2.28-1.31,6.01-2.31,8.06-1.32,3.56,1.72,1.96,5.51.89,8.51-14.32,40.19-29.13,80.24-36.86,122.39-1.73,9.42-2.83,18.95-4,28.46h10.47c1.33-3.24,2.57-6.52,4.21-9.59Z"/>
        <path class="cls-2" d="M529.09,554.6c.44,3.13,1.71,6.1-2.13,7.62-3.84,1.52-5.11-1.94-6.33-4.21-6.65-12.43-13.13-24.95-19.53-37.51h-9.66c1.03,9.57,1.64,19.23,3.5,28.64,7.43,37.54,19.28,73.82,32.24,109.76,2.09,5.79,4.9,11.35,6.53,17.25.53,1.93-.99,5.61-2.68,6.63-1.67,1-5.18.35-7.14-.82-5-2.98-9.47-6.84-14.4-9.96-1.68-1.06-5.08-2-5.99-1.16-1.82,1.68-3.18,4.58-3.4,7.09-.22,2.49.94,5.23,1.95,7.68,9.04,21.9,18.21,43.76,27.28,65.65,1.4,3.37,3,6.77,3.66,10.31.92,4.92-3.58,8.77-8.37,7.49-3.04-.81-5.94-2.18-9-2.94-2.27-.57-5.98-1.59-6.77-.6-1.61,2.02-2.7,5.48-2.18,7.97.98,4.65,3.05,9.12,5.04,13.49,6.52,14.28,13.3,28.44,19.81,42.72.05.1.08.19.12.29h24.89c-.14-.29-.28-.58-.42-.87-3.16-6.71-1-9.66,6.34-10.17,3.01-.21,6.04-.28,9.01-.74,7.86-1.2,9.8-4.74,6.91-12.33-.53-1.4-1.2-2.77-1.89-4.1-6.17-11.87-12.36-23.74-18.56-35.6-2.79-5.34-6.08-10.48-8.18-16.07-.94-2.51-.46-6.71,1.16-8.67,1.26-1.53,5.43-1.5,8.03-.92,4.33.97,8.43,2.99,12.65,4.47,4.01,1.41,7.56-.98,7.58-5.26,0-1.78-.46-3.68-1.18-5.31-4.95-11.14-10.17-22.17-15.02-33.36-6.3-14.54-12.61-29.08-18.31-43.85-1.87-4.86-2.94-10.47-.1-16.28,7.24,5.71,14.02,11.16,20.91,16.46,3.44,2.65,6.85,7.63,11.63,4.27,4.79-3.37,1.96-8.55.42-12.87-3.86-10.85-7.83-21.66-11.86-32.45-11.53-30.83-20.94-62.25-26.58-94.72-.06-.37-.12-.74-.19-1.12h-14.65c1.59,11.37,3.22,22.74,4.84,34.11Z"/>
        <path class="cls-2" d="M1391.53,287.79c-1.18-8.89-2.22-17.79-3.32-26.68.55-.29,1.1-.58,1.66-.86,6.5,10.22,13.19,20.33,19.41,30.71,3.43,5.73,6.19,11.89,9.02,17.96.09.2.2.38.3.56h9.77c.31-1.03.32-2.23.17-3.47-.19-1.66-.68-3.28-.92-4.93-5.05-34.81-14.09-68.59-25.89-101.68-5.04-14.14-10.09-28.27-14.7-42.55-.7-2.17,1.01-5.12,1.6-7.71,2.03.58,4.32.75,6.04,1.82,7.86,4.93,15.55,10.11,23.41,15.28,2.18-6.59,2.15-12.79-.24-18.68-6.2-15.29-12.76-30.44-19.06-45.69-3.82-9.25-7.69-18.5-11.03-27.93-2.12-5.98.05-8.64,6.41-8.35,3.23.14,6.4,1.45,9.63,1.97,2.45.39,6.04,1.43,7.21.26,1.82-1.81,3.09-5.44,2.66-7.97-.74-4.35-2.74-8.54-4.62-12.62-7.05-15.34-14.35-30.55-21.36-45.91-.21-.45-.39-.89-.55-1.31h-25.31c.88,1.9,1.73,3.81,2.5,5.75,2.23,5.61-.05,8.64-6.02,9.21-2.83.27-5.71.05-8.57.09-7.89.13-10.58,3.89-8.14,11.39.51,1.58,1.13,3.15,1.89,4.62,5.13,9.97,10.27,19.93,15.47,29.85,3.72,7.1,7.94,13.98,11.1,21.32,1.1,2.55.54,6.62-.79,9.22-1.74,3.39-5.44,2.35-8.55,1.2-4.06-1.5-8.12-3-12.19-4.48-4.53-1.65-7.86.53-7.6,5.37.13,2.41,1.06,4.89,2.08,7.13,5.35,11.88,10.98,23.64,16.23,35.56,5.85,13.27,11.62,26.59,16.95,40.07,1.92,4.86,1.82,10.2-.78,15.87-7.52-6.13-14.31-11.86-21.33-17.28-3.43-2.65-8.08-5.93-11.61-2.42-1.9,1.9-1.27,7.64-.11,11.09,5.1,15.17,10.97,30.09,16.24,45.2,8.58,24.59,16.8,49.33,20.73,75.17.28,1.85.56,3.7.83,5.55h14.26c-.97-7.23-1.94-14.46-2.89-21.7Z"/>
        <path class="cls-2" d="M1399.38,558.37c-2.81,5.1-7.15,9.35-10.8,13.98.15-8.91,1.49-17.12,2.64-25.36,1.23-8.83,2.51-17.66,3.75-26.5h-14.66c-2.77,17.13-6.42,34.16-11.12,50.8-7.14,25.29-17.1,49.79-25.87,74.62-1.92,5.43-3.15,10.86-1.11,16.89,14.19-2.03,20.67-16.76,34.26-20.78.27,2.17.88,3.85.59,5.35-1.29,6.83-1.86,14.03-4.49,20.34-7.01,16.8-14.94,33.22-22.51,49.78-2.77,6.06-5.96,11.98-8.19,18.23-.85,2.37-.31,6.06,1.1,8.11.82,1.17,4.75.67,7.11.17,3.23-.69,6.36-1.99,9.45-3.23,3.54-1.41,7.1-2.84,10.07.8,2.85,3.5,1.91,7.24-.01,10.82-3.08,5.73-6.31,11.39-9.34,17.15-6.15,11.69-12.62,23.25-18.19,35.22-4.07,8.75-.87,12.92,8.71,13.23,2.99.1,6.03.34,8.95.95,4.97,1.03,6.57,3.68,4.85,8.39-.33.9-.71,1.77-1.13,2.64h25c1.25-2.96,2.75-5.84,4.13-8.76,6.34-13.44,12.91-26.77,18.97-40.33,2.3-5.16,3.2-10.83.15-16.68-5.16,1.64-9.99,3.6-15.02,4.6-2.44.49-6.15.05-7.62-1.53-1.63-1.74-2.24-5.45-1.7-7.96.82-3.83,3.02-7.37,4.6-11.04,8.25-19.15,16.54-38.29,24.72-57.47,3.01-7.05,3.67-14.34,1.9-23.2-4.8,2.72-8.86,4.86-12.75,7.28-4.12,2.56-7.95,5.61-12.17,7.99-1.45.81-4.22.97-5.4.09-1.26-.93-1.7-3.42-1.84-5.27-.1-1.38.83-2.84,1.33-4.25,15.17-42.4,30.3-84.83,38.34-129.32,1.4-7.76,1.75-15.71,2.12-23.64h-9.34c-6.42,12.67-12.63,25.45-19.49,37.88Z"/>
        <path class="cls-2" d="M570.82,543.94c1.22,1.43,3.91,1.61,5.91,2.37.62-2.01,1.79-4.04,1.73-6.03-.1-3.3-.95-6.59-1.56-9.87-.61-3.3-1.2-6.61-1.79-9.91h-18.1c3.43,8.41,7.77,16.37,13.8,23.44Z"/>
        <path class="cls-2" d="M578.44,291.72c.23-1.53-.45-3.65-1.49-4.76-.71-.76-3.07-.76-4.17-.16-1.53.83-2.93,2.35-3.77,3.91-3.35,6.28-7.09,12.43-10.32,18.77h16.88c.99-5.92,1.98-11.83,2.87-17.76Z"/>
        <path class="cls-2" d="M1343.35,538.55c-.23,1.88.79,3.92,1.24,5.88,1.9-.96,4.65-1.43,5.54-2.98,3.98-6.88,8.14-13.74,11.42-20.95h-15.83c-.82,6.01-1.62,12.03-2.37,18.05Z"/>
        <path class="cls-2" d="M1360.81,308.62c-3.1-6.61-7.2-12.79-11.22-18.91-.82-1.26-3.69-2.28-5.01-1.79-1.33.49-2.07,2.95-2.75,4.67-.34.85-.04,2,.12,2.99.73,4.64,1.51,9.28,2.3,13.91h16.95c-.13-.29-.26-.58-.39-.87Z"/>
        <path class="cls-2" d="M845.2,520.5h-.96c.31.04.63.04.96,0Z"/>
      </g>
      <g>
        <path class="cls-3" d="M999.19,440.43h-51.03l-12.19,32.18h-17.06l45.83-115.24h18.37l45.83,115.24h-17.23l-12.51-32.18ZM953.85,425.64h39.66l-19.99-51.68-19.66,51.68Z"/>
        <path class="cls-3" d="M1059.82,425.47v47.14h-15.93v-115.24h41.93c5.31,0,10.16.87,14.55,2.6,4.39,1.73,8.13,4.14,11.22,7.23s5.5,6.69,7.23,10.81,2.6,8.61,2.6,13.49-.87,9.4-2.6,13.57-4.14,7.75-7.23,10.72c-3.09,2.98-6.83,5.34-11.22,7.07-4.39,1.73-9.24,2.6-14.55,2.6h-26.01ZM1082.9,411.17c6.93,0,12.38-1.76,16.34-5.28,3.95-3.52,5.93-8.26,5.93-14.22s-1.98-11.05-5.93-14.63c-3.96-3.58-9.4-5.37-16.34-5.37h-23.08v39.5h23.08Z"/>
        <path class="cls-3" d="M1138.48,472.61v-115.24h16.25v115.24h-16.25Z"/>
        <path class="cls-3" d="M761.39,478.02h126.06v-126.07h-126.06v126.07ZM824.42,361.76c12.24,0,23.49,4.18,32.48,11.13l-30.37,30.36,9.62,9.63,30.37-30.37c6.95,8.99,11.12,20.24,11.12,32.48,0,29.4-23.83,53.23-53.23,53.23s-53.23-23.83-53.23-53.23,23.83-53.23,53.23-53.23Z"/>
      </g>
    </g>
  </g>
</svg>
